<?xml version="1.0" encoding="UTF-8" standalone="no" ?>
<!DOCTYPE svg PUBLIC "-//W3C//DTD SVG 1.1//EN" "http://www.w3.org/Graphics/SVG/1.1/DTD/svg11.dtd">
<svg xmlns="http://www.w3.org/2000/svg" xmlns:xlink="http://www.w3.org/1999/xlink" version="1.1" width="500" height="500" viewBox="0 0 500 500" xml:space="preserve">
<!-- Created with SVG Stack Editor - https://svgstack.com -->
<defs>
</defs>
<rect x="0" y="0" width="100%" height="100%" fill="transparent"></rect>
<g transform="matrix(5.09 0 0 5.09 250 250)"  >
<g style=""   >
		<g transform="matrix(1 0 0 1 -11.75 17.17)" id="path_0"  >
<path style="stroke: none; stroke-width: 1; stroke-dasharray: none; stroke-linecap: butt; stroke-dashoffset: 0; stroke-linejoin: miter; stroke-miterlimit: 4; fill: rgb(255,255,255); fill-rule: nonzero; opacity: 1;"  transform=" translate(-52.25, -78.31)" d="M 64.2057 109.714 L 21.1673 46.9084 L 40.2925 46.9084 L 83.336 109.714 L 64.2057 109.714 Z" stroke-linecap="round" />
</g>
		<g transform="matrix(1 0 0 1 -28.5 34.61)" id="path_1"  >
<path style="stroke: none; stroke-width: 1; stroke-dasharray: none; stroke-linecap: butt; stroke-dashoffset: 0; stroke-linejoin: miter; stroke-miterlimit: 4; fill: rgb(255,255,255); fill-rule: nonzero; opacity: 1;"  transform=" translate(-35.5, -95.75)" d="M 21.1428 109.714 L 40.2782 81.7907 L 49.848 95.7553 L 40.288 109.714 L 21.1428 109.714 Z" stroke-linecap="round" />
</g>
		<g transform="matrix(1 0 0 1 16.75 -17.45)" id="path_2"  >
<path style="stroke: none; stroke-width: 1; stroke-dasharray: none; stroke-linecap: butt; stroke-dashoffset: 0; stroke-linejoin: miter; stroke-miterlimit: 4; fill: rgb(255,255,255); fill-rule: nonzero; opacity: 1;"  transform=" translate(-80.75, -43.69)" d="M 54.636 60.8376 L 87.712 12.5713 L 106.857 12.5713 L 64.2057 74.8061 L 54.636 60.8376 Z" stroke-linecap="round" />
</g>
		<g transform="matrix(1 0 0 1 35.02 3.49)" id="path_3"  >
<path style="stroke: none; stroke-width: 1; stroke-dasharray: none; stroke-linecap: butt; stroke-dashoffset: 0; stroke-linejoin: miter; stroke-miterlimit: 4; fill: rgb(255,255,255); fill-rule: nonzero; opacity: 1;"  transform=" translate(-99.02, -64.63)" d="M 91.1765 109.714 L 91.1765 42.437 L 106.857 19.5559 L 106.857 109.714 L 91.1765 109.714 Z" stroke-linecap="round" />
</g>
</g>
</g>
<g transform="matrix(5.09 0 0 5.09 250 250)"  >
<g style=""   >
		<g transform="matrix(1 0 0 1 -11.75 17.17)" id="path_0"  >
<path style="stroke: none; stroke-width: 1; stroke-dasharray: none; stroke-linecap: butt; stroke-dashoffset: 0; stroke-linejoin: miter; stroke-miterlimit: 4; fill: rgb(255,255,255); fill-rule: nonzero; opacity: 1;"  transform=" translate(-52.25, -78.31)" d="M 64.2057 109.714 L 21.1673 46.9084 L 40.2925 46.9084 L 83.336 109.714 L 64.2057 109.714 Z" stroke-linecap="round" />
</g>
		<g transform="matrix(1 0 0 1 -28.5 34.61)" id="path_1"  >
<path style="stroke: none; stroke-width: 1; stroke-dasharray: none; stroke-linecap: butt; stroke-dashoffset: 0; stroke-linejoin: miter; stroke-miterlimit: 4; fill: rgb(255,255,255); fill-rule: nonzero; opacity: 1;"  transform=" translate(-35.5, -95.75)" d="M 21.1428 109.714 L 40.2782 81.7907 L 49.848 95.7553 L 40.288 109.714 L 21.1428 109.714 Z" stroke-linecap="round" />
</g>
		<g transform="matrix(1 0 0 1 16.75 -17.45)" id="path_2"  >
<path style="stroke: none; stroke-width: 1; stroke-dasharray: none; stroke-linecap: butt; stroke-dashoffset: 0; stroke-linejoin: miter; stroke-miterlimit: 4; fill: rgb(255,255,255); fill-rule: nonzero; opacity: 1;"  transform=" translate(-80.75, -43.69)" d="M 54.636 60.8376 L 87.712 12.5713 L 106.857 12.5713 L 64.2057 74.8061 L 54.636 60.8376 Z" stroke-linecap="round" />
</g>
		<g transform="matrix(1 0 0 1 35.02 3.49)" id="path_3"  >
<path style="stroke: none; stroke-width: 1; stroke-dasharray: none; stroke-linecap: butt; stroke-dashoffset: 0; stroke-linejoin: miter; stroke-miterlimit: 4; fill: rgb(255,255,255); fill-rule: nonzero; opacity: 1;"  transform=" translate(-99.02, -64.63)" d="M 91.1765 109.714 L 91.1765 42.437 L 106.857 19.5559 L 106.857 109.714 L 91.1765 109.714 Z" stroke-linecap="round" />
</g>
</g>
</g>
</svg>